<?xml version="1.0" encoding="UTF-8"?>
<!DOCTYPE svg PUBLIC "-//W3C//DTD SVG 1.1//EN" "http://www.w3.org/Graphics/SVG/1.1/DTD/svg11.dtd">
<svg width="1000pt" height="189pt" viewBox="0 0 1000 189" version="1.1" xmlns="http://www.w3.org/2000/svg">
<path fill="#ffffff" d=" M 0.00 0.00 L 1000.00 0.00 L 1000.00 189.00 L 0.00 189.00 L 0.00 0.00 Z"/>
<path fill="#727682" d=" M 83.51 8.81 C 97.46 4.21 112.37 3.34 126.92 4.69 C 148.19 7.21 168.53 15.29 186.56 26.71 C 186.06 26.88 185.05 27.23 184.55 27.41 C 181.15 25.77 177.92 23.79 174.58 22.04 C 161.74 15.28 147.87 10.43 133.58 7.91 C 126.11 6.85 118.53 7.22 111.01 7.15 C 94.35 6.67 78.01 12.36 63.80 20.76 C 48.27 29.98 35.92 44.78 30.87 62.24 C 27.22 76.45 27.16 91.99 33.18 105.58 C 36.26 113.47 42.06 119.81 46.05 127.20 C 36.88 118.62 30.30 107.22 27.50 94.97 C 23.65 77.48 26.79 58.52 36.40 43.38 C 47.11 26.49 64.65 14.79 83.51 8.81 Z"/>
<path fill="#00446b" d=" M 63.80 20.76 C 78.01 12.36 94.35 6.67 111.01 7.15 C 118.53 7.22 126.11 6.85 133.58 7.91 C 147.87 10.43 161.74 15.28 174.58 22.04 C 177.92 23.79 181.15 25.77 184.55 27.41 C 183.66 31.26 183.15 35.19 182.36 39.06 C 178.52 37.83 175.41 35.22 172.03 33.13 C 160.49 26.21 147.97 20.86 134.86 17.72 C 118.89 14.47 102.04 14.53 86.43 19.58 C 70.51 24.41 55.47 33.97 46.35 48.14 C 41.20 56.51 37.40 66.09 37.48 76.05 C 37.36 82.43 37.31 88.95 39.47 95.05 C 41.88 102.37 45.35 110.01 51.76 114.65 C 55.58 118.10 58.80 122.27 63.38 124.80 L 63.47 125.35 C 64.51 125.77 65.54 126.20 66.57 126.63 L 66.47 127.71 C 66.92 127.61 67.81 127.41 68.25 127.31 L 68.45 128.27 C 71.77 129.77 74.88 131.76 78.40 132.80 L 78.47 133.73 L 81.05 133.02 C 80.60 133.38 79.70 134.11 79.24 134.47 C 81.05 134.49 82.85 134.57 84.65 134.68 C 85.14 139.41 81.09 142.85 79.11 146.78 C 66.95 142.54 55.32 136.22 46.05 127.20 C 42.06 119.81 36.26 113.47 33.18 105.58 C 27.16 91.99 27.22 76.45 30.87 62.24 C 35.92 44.78 48.27 29.98 63.80 20.76 Z"/>
<path fill="#1a181d" d=" M 86.43 19.58 C 102.04 14.53 118.89 14.47 134.86 17.72 C 147.97 20.86 160.49 26.21 172.03 33.13 C 175.41 35.22 178.52 37.83 182.36 39.06 C 183.15 35.19 183.66 31.26 184.55 27.41 C 185.05 27.23 186.06 26.88 186.56 26.71 C 185.59 31.98 184.50 37.22 183.40 42.46 C 173.79 34.47 162.52 28.69 150.94 24.13 C 133.25 17.31 113.57 14.75 94.96 19.10 C 77.20 23.09 60.04 32.47 49.29 47.46 C 39.85 60.36 36.55 77.46 40.33 92.96 C 42.18 101.07 46.58 108.26 51.76 114.65 C 45.35 110.01 41.88 102.37 39.47 95.05 C 37.31 88.95 37.36 82.43 37.48 76.05 C 37.40 66.09 41.20 56.51 46.35 48.14 C 55.47 33.97 70.51 24.41 86.43 19.58 Z"/>
<path fill="#1a181d" d=" M 930.38 19.71 C 932.23 17.22 935.83 20.72 933.83 22.81 C 931.91 25.18 928.15 21.73 930.38 19.71 Z"/>
<path fill="#1a181d" d=" M 940.33 19.49 C 942.54 17.21 945.77 21.56 943.09 23.14 C 940.89 24.97 937.91 21.10 940.33 19.49 Z"/>
<path fill="#1a181d" d=" M 78.84 38.95 C 84.03 30.92 93.50 26.17 102.98 26.05 C 108.77 26.03 115.07 26.42 119.88 30.03 C 121.30 31.20 123.01 31.76 124.81 32.00 C 123.95 32.71 123.09 33.42 122.25 34.14 C 118.09 29.07 111.30 27.32 104.99 27.37 C 97.99 27.20 90.60 29.53 85.88 34.91 C 77.93 43.61 76.35 57.55 82.13 67.82 C 85.16 73.27 90.91 76.52 96.72 78.23 C 104.46 80.50 112.89 79.19 119.94 75.42 C 119.27 85.76 119.72 96.33 122.65 106.31 C 127.18 106.55 131.69 105.32 135.02 102.16 C 133.41 107.23 127.33 107.21 122.96 107.35 C 124.58 111.79 126.32 116.19 128.17 120.54 C 129.46 123.57 130.89 126.55 132.45 129.45 C 139.81 143.70 149.95 156.52 162.46 166.58 C 168.18 170.66 176.01 171.38 182.47 168.77 C 184.65 167.98 185.92 166.02 186.84 164.01 C 185.51 163.00 183.24 162.23 184.15 160.12 C 186.02 158.43 189.28 160.66 188.78 163.03 C 188.29 166.12 186.00 168.70 183.48 170.40 C 176.26 172.91 167.82 172.91 161.16 168.83 C 152.29 163.59 145.49 155.61 139.26 147.56 C 130.00 135.69 123.49 121.78 119.75 107.22 C 114.70 106.11 109.80 104.41 104.70 103.51 C 96.71 122.36 89.55 142.18 75.79 157.75 C 69.43 165.45 60.51 172.64 50.00 172.33 C 44.90 171.99 39.34 171.19 35.37 167.65 C 30.40 163.36 30.66 154.66 35.41 150.33 C 37.24 148.72 39.61 149.83 41.31 151.02 C 40.51 153.73 37.51 153.94 35.57 152.26 C 34.11 154.59 32.63 157.20 32.96 160.06 C 33.54 165.92 39.22 170.53 45.02 170.44 C 52.93 171.14 60.93 168.22 66.67 162.77 C 82.54 148.45 91.20 128.35 99.25 109.02 C 97.87 108.03 95.90 107.03 96.31 104.96 C 96.34 102.06 99.98 102.31 102.01 102.04 C 105.62 93.48 110.18 85.21 116.48 78.31 C 108.93 80.91 100.56 81.54 92.93 78.91 C 83.67 75.95 76.09 67.71 74.76 57.97 C 74.06 51.43 75.14 44.50 78.84 38.95 Z"/>
<path fill="#1a181d" d=" M 264.21 30.24 C 271.62 25.25 281.76 25.67 289.64 29.36 C 289.19 30.75 288.75 32.13 288.31 33.52 C 282.52 27.24 271.02 26.53 265.62 33.63 C 261.36 39.63 261.41 48.44 265.45 54.54 C 269.83 60.62 278.62 60.90 285.05 58.28 C 284.99 54.05 285.03 49.81 285.00 45.58 C 286.48 45.59 287.96 45.59 289.45 45.58 C 289.44 50.24 289.45 54.89 289.45 59.54 C 282.23 61.82 274.09 63.01 266.87 60.15 C 255.45 55.30 254.39 37.23 264.21 30.24 Z"/>
<path fill="#1a181d" d=" M 298.16 27.30 C 304.02 27.29 309.89 27.33 315.76 27.27 C 315.76 28.01 315.77 29.50 315.78 30.24 C 311.41 29.65 307.00 29.68 302.60 29.62 C 302.60 33.78 302.60 37.93 302.60 42.08 C 306.60 42.11 310.61 42.12 314.61 41.84 C 314.62 42.52 314.64 43.87 314.65 44.55 C 310.64 44.26 306.62 44.31 302.60 44.34 C 302.61 49.16 302.58 53.99 302.63 58.81 C 307.10 58.72 311.58 58.60 316.05 58.18 C 316.05 58.91 316.04 60.39 316.04 61.12 C 310.08 61.12 304.12 61.12 298.16 61.12 C 298.15 49.85 298.15 38.57 298.16 27.30 Z"/>
<path fill="#1a181d" d=" M 333.33 27.54 C 339.92 25.66 347.63 26.49 353.09 30.87 C 361.98 38.21 359.85 54.43 349.58 59.52 C 341.87 63.44 331.08 62.60 325.26 55.74 C 317.88 46.77 321.58 30.69 333.33 27.54 Z"/>
<path fill="#1a181d" d=" M 365.93 27.30 C 371.56 27.59 377.40 26.55 382.88 28.18 C 387.50 29.44 388.69 35.48 386.30 39.19 C 384.43 42.32 380.73 43.43 377.46 44.43 C 381.93 50.02 386.28 55.72 390.92 61.17 C 388.95 61.14 386.99 61.14 385.03 61.16 C 381.06 55.51 376.77 50.07 372.26 44.83 C 371.78 44.80 370.81 44.74 370.33 44.70 C 370.26 50.18 370.30 55.66 370.30 61.14 C 368.84 61.14 367.38 61.15 365.93 61.16 C 365.93 49.87 365.92 38.59 365.93 27.30 Z"/>
<path fill="#1a181d" d=" M 403.42 29.53 C 410.73 25.32 420.18 25.86 427.69 29.33 C 427.40 30.37 426.81 32.45 426.51 33.49 C 422.43 29.56 416.53 27.52 410.95 29.00 C 405.71 30.02 401.77 34.73 401.02 39.91 C 399.99 45.90 400.86 53.12 405.97 57.09 C 410.91 60.66 417.66 60.42 423.14 58.31 C 423.11 54.06 423.14 49.82 423.12 45.57 C 424.57 45.58 426.03 45.58 427.50 45.58 C 427.48 50.25 427.50 54.92 427.48 59.59 C 420.42 61.76 412.54 62.95 405.44 60.34 C 393.17 55.67 392.26 35.95 403.42 29.53 Z"/>
<path fill="#1a181d" d=" M 449.99 61.15 C 455.44 49.47 460.21 37.45 466.04 25.95 C 471.74 37.42 476.28 49.45 481.50 61.15 C 479.73 61.14 477.98 61.14 476.23 61.16 C 474.69 56.65 472.92 52.24 471.08 47.85 C 466.91 47.85 462.74 47.86 458.58 47.84 C 456.71 52.19 455.05 56.63 453.64 61.15 C 452.72 61.15 450.90 61.15 449.99 61.15 Z"/>
<path fill="#1a181d" d=" M 487.72 27.39 C 489.19 27.39 490.65 27.37 492.12 27.35 C 492.15 34.26 492.08 41.18 492.14 48.09 C 492.24 52.03 493.33 56.78 497.34 58.49 C 500.78 59.80 504.83 59.92 508.23 58.40 C 512.00 56.43 513.46 51.96 513.61 47.96 C 513.74 41.10 513.63 34.24 513.64 27.38 C 514.62 27.38 515.61 27.38 516.60 27.38 C 516.51 34.15 516.66 40.92 516.54 47.68 C 516.44 51.55 515.37 55.65 512.38 58.31 C 508.15 62.20 501.82 62.35 496.50 61.20 C 491.78 60.14 488.12 55.86 487.91 51.01 C 487.50 43.15 487.87 35.26 487.72 27.39 Z"/>
<path fill="#1a181d" d=" M 526.35 38.43 C 527.89 32.95 532.67 28.84 538.10 27.44 C 544.53 25.83 551.41 26.58 557.49 29.14 C 557.12 30.61 556.73 32.07 556.35 33.53 C 550.11 26.66 536.91 26.61 532.40 35.40 C 529.38 41.94 529.61 50.87 534.84 56.25 C 539.68 60.68 547.20 60.62 553.01 58.27 C 552.91 54.03 552.95 49.80 552.95 45.57 C 554.41 45.58 555.87 45.59 557.33 45.59 C 557.32 50.26 557.34 54.94 557.32 59.62 C 549.52 61.91 540.39 63.38 532.99 59.17 C 525.97 55.10 524.30 45.74 526.35 38.43 Z"/>
<path fill="#1a181d" d=" M 566.44 27.39 C 567.90 27.39 569.37 27.37 570.85 27.36 C 570.83 34.21 570.79 41.06 570.84 47.92 C 570.93 51.80 571.92 56.52 575.79 58.37 C 579.38 59.86 583.75 59.97 587.28 58.21 C 591.13 55.94 592.37 51.15 592.38 46.96 C 592.41 40.43 592.38 33.90 592.36 27.37 C 593.34 27.38 594.32 27.39 595.30 27.39 C 595.23 34.25 595.37 41.11 595.25 47.97 C 595.22 52.16 593.59 56.54 590.15 59.10 C 586.02 62.18 580.43 62.23 575.58 61.29 C 570.75 60.35 566.88 56.10 566.65 51.15 C 566.20 43.24 566.61 35.30 566.44 27.39 Z"/>
<path fill="#1a181d" d=" M 608.45 28.26 C 612.71 25.83 618.25 26.13 622.38 28.74 C 621.87 30.24 621.37 31.74 620.89 33.25 C 619.37 30.88 617.14 28.39 614.00 28.82 C 609.77 28.61 606.59 33.55 608.73 37.26 C 611.97 42.50 620.07 41.43 623.03 47.00 C 624.74 51.28 623.26 56.69 619.45 59.36 C 614.80 62.80 608.02 62.50 603.39 59.17 C 603.74 57.52 604.09 55.87 604.44 54.21 C 606.51 56.96 609.14 60.01 612.99 59.59 C 618.25 59.79 621.84 52.67 618.41 48.64 C 614.95 44.98 608.98 45.20 605.75 41.20 C 602.89 37.19 604.04 30.71 608.45 28.26 Z"/>
<path fill="#1a181d" d=" M 627.76 27.29 C 636.25 27.31 644.73 27.30 653.22 27.30 C 653.21 28.04 653.19 29.53 653.17 30.28 C 649.75 29.96 646.32 29.75 642.89 29.70 C 642.90 40.23 642.89 50.75 642.90 61.27 C 641.43 61.26 639.97 61.25 638.52 61.25 C 638.52 50.74 638.53 40.22 638.52 29.70 C 634.92 29.75 631.34 29.96 627.78 30.29 C 627.77 29.54 627.76 28.04 627.76 27.29 Z"/>
<path fill="#1a181d" d=" M 698.79 27.40 C 699.72 27.39 700.66 27.38 701.61 27.37 C 701.56 33.94 701.61 40.51 701.60 47.07 C 701.65 51.38 700.37 56.07 696.85 58.83 C 692.66 62.14 686.83 62.30 681.80 61.25 C 677.38 60.33 673.65 56.69 673.15 52.11 C 672.20 43.91 672.93 35.61 672.69 27.38 C 674.15 27.38 675.62 27.37 677.10 27.36 C 677.17 34.50 676.94 41.65 677.22 48.79 C 677.35 52.54 678.61 56.89 682.39 58.48 C 686.65 60.05 692.27 60.13 695.62 56.62 C 698.16 53.73 698.74 49.70 698.80 45.98 C 698.82 39.79 698.79 33.59 698.79 27.40 Z"/>
<path fill="#1a181d" d=" M 712.41 27.24 C 712.93 27.27 713.97 27.34 714.49 27.37 C 722.42 35.97 730.32 44.59 738.30 53.14 C 738.41 44.55 738.35 35.95 738.34 27.35 C 739.27 27.38 740.21 27.40 741.17 27.42 C 741.08 38.82 741.23 50.21 741.09 61.60 C 738.85 60.77 737.55 58.68 735.99 57.03 C 729.09 49.42 722.33 41.68 715.27 34.22 C 715.17 43.19 715.25 52.16 715.23 61.14 C 714.52 61.14 713.10 61.14 712.39 61.15 C 712.42 49.84 712.37 38.54 712.41 27.24 Z"/>
<path fill="#1a181d" d=" M 751.46 27.38 C 752.95 27.38 754.44 27.37 755.95 27.36 C 755.92 38.63 755.94 49.89 755.94 61.16 C 754.44 61.15 752.96 61.14 751.48 61.15 C 751.46 49.89 751.51 38.64 751.46 27.38 Z"/>
<path fill="#1a181d" d=" M 762.35 27.27 C 764.06 27.27 765.77 27.39 767.51 27.38 C 771.01 37.07 774.83 46.64 778.89 56.10 C 783.40 46.85 786.73 37.06 790.23 27.39 C 791.50 27.38 792.77 27.38 794.06 27.37 C 788.83 38.52 784.05 49.88 779.60 61.36 C 776.83 61.58 776.48 58.52 775.44 56.66 C 770.88 46.95 767.14 36.87 762.35 27.27 Z"/>
<path fill="#1a181d" d=" M 799.68 27.31 C 805.51 27.29 811.34 27.30 817.17 27.31 C 817.15 28.27 817.15 29.24 817.16 30.21 C 812.81 29.68 808.43 29.67 804.06 29.63 C 804.05 33.78 804.05 37.93 804.06 42.08 C 808.05 42.11 812.06 42.11 816.06 41.85 C 816.06 42.52 816.07 43.87 816.08 44.54 C 812.07 44.26 808.06 44.31 804.06 44.33 C 804.06 49.15 804.03 53.98 804.08 58.81 C 808.56 58.71 813.04 58.61 817.51 58.18 C 817.50 58.92 817.47 60.39 817.46 61.13 C 811.53 61.11 805.61 61.13 799.69 61.12 C 799.68 49.85 799.70 38.58 799.68 27.31 Z"/>
<path fill="#1a181d" d=" M 825.32 27.31 C 831.02 27.61 836.97 26.48 842.49 28.28 C 846.82 29.61 847.92 35.24 845.85 38.85 C 844.07 42.22 840.17 43.39 836.79 44.43 C 841.30 49.97 845.60 55.70 850.22 61.15 C 848.25 61.14 846.31 61.14 844.36 61.16 C 841.33 56.74 837.99 52.55 834.65 48.37 C 833.27 46.79 832.02 44.76 829.74 44.47 C 829.64 50.04 829.71 55.60 829.70 61.17 C 828.23 61.15 826.77 61.14 825.32 61.14 C 825.31 49.86 825.32 38.58 825.32 27.31 Z"/>
<path fill="#1a181d" d=" M 858.62 28.66 C 862.89 25.76 868.82 26.04 873.12 28.74 C 872.63 30.26 872.16 31.79 871.72 33.32 C 870.20 30.99 868.11 28.46 864.99 28.82 C 860.60 28.46 857.20 33.67 859.62 37.46 C 862.90 42.29 870.28 41.53 873.50 46.47 C 875.86 50.97 873.98 57.11 869.69 59.76 C 865.02 62.76 858.65 62.35 854.16 59.19 C 854.52 57.52 854.88 55.84 855.23 54.17 C 857.16 56.76 859.51 59.71 863.11 59.59 C 868.34 60.24 872.36 53.71 869.66 49.30 C 866.37 44.78 859.40 45.44 856.21 40.76 C 853.95 36.92 854.80 31.22 858.62 28.66 Z"/>
<path fill="#1a181d" d=" M 882.14 27.37 C 883.60 27.37 885.08 27.38 886.57 27.37 C 886.53 38.63 886.56 49.89 886.55 61.15 C 885.08 61.15 883.61 61.15 882.16 61.16 C 882.15 49.89 882.18 38.63 882.14 27.37 Z"/>
<path fill="#1a181d" d=" M 893.12 27.27 C 901.62 27.34 910.12 27.28 918.62 27.30 C 918.61 28.05 918.59 29.55 918.59 30.30 C 915.16 29.96 911.73 29.75 908.30 29.71 C 908.32 40.22 908.30 50.74 908.32 61.25 C 906.82 61.25 905.33 61.26 903.85 61.26 C 903.86 50.74 903.86 40.22 903.85 29.71 C 900.27 29.75 896.69 29.96 893.13 30.32 C 893.13 29.56 893.13 28.03 893.12 27.27 Z"/>
<path fill="#1a181d" d=" M 937.08 25.99 C 939.18 28.85 940.22 32.28 941.66 35.49 C 945.39 44.03 948.99 52.62 952.73 61.16 C 950.96 61.14 949.21 61.14 947.46 61.15 C 945.82 56.68 944.15 52.21 942.26 47.84 C 938.09 47.86 933.93 47.86 929.77 47.84 C 927.95 52.22 926.25 56.65 924.78 61.16 C 923.89 61.16 922.11 61.16 921.22 61.16 C 926.53 49.45 931.54 37.60 937.08 25.99 Z"/>
<path fill="#1a181d" d=" M 955.31 27.27 C 963.80 27.32 972.29 27.32 980.79 27.27 C 980.80 28.03 980.84 29.54 980.85 30.30 C 977.41 29.97 973.97 29.76 970.52 29.70 C 970.51 40.22 970.51 50.74 970.52 61.26 C 969.03 61.26 967.55 61.26 966.09 61.27 C 966.10 50.75 966.07 40.23 966.10 29.71 C 962.50 29.74 958.90 29.95 955.33 30.32 C 955.31 29.30 955.30 28.29 955.31 27.27 Z"/>
<path fill="#bcc1cf" d=" M 192.68 28.51 C 199.31 28.54 205.94 28.47 212.57 28.45 C 211.97 30.58 211.64 32.78 211.62 34.99 C 211.62 65.17 211.74 95.35 211.56 125.54 C 208.53 125.60 205.50 125.58 202.48 125.87 C 202.60 115.92 202.45 105.96 202.59 96.00 C 202.60 94.23 202.60 92.39 201.58 90.85 C 202.21 87.44 201.90 83.95 202.03 80.50 C 202.07 79.97 202.14 78.92 202.18 78.39 C 202.63 73.95 202.62 69.49 202.56 65.04 C 202.42 56.96 203.11 48.79 201.37 40.83 C 201.36 39.51 201.33 38.19 201.30 36.87 C 198.52 40.31 198.17 44.87 196.83 48.94 C 191.51 66.33 183.60 83.04 172.64 97.61 C 164.14 108.55 153.73 118.46 140.93 124.14 C 137.91 125.59 134.02 126.06 132.45 129.45 C 130.89 126.55 129.46 123.57 128.17 120.54 C 129.33 119.67 130.49 118.74 131.91 118.32 C 141.17 115.52 149.49 110.04 156.25 103.18 C 159.80 99.49 163.84 96.07 166.00 91.31 C 166.26 90.87 166.79 89.98 167.06 89.54 C 169.02 86.60 170.93 83.62 172.81 80.62 C 173.30 79.89 173.84 79.19 174.38 78.50 C 177.23 75.24 178.80 71.17 180.68 67.33 C 186.44 55.02 190.27 41.87 192.68 28.51 Z"/>
<path fill="#727682" d=" M 212.57 28.45 C 212.85 28.27 213.42 27.91 213.71 27.73 C 214.24 61.07 213.80 94.43 213.93 127.78 C 209.91 127.90 205.89 127.92 201.87 127.75 C 202.02 127.28 202.33 126.34 202.48 125.87 C 205.50 125.58 208.53 125.60 211.56 125.54 C 211.74 95.35 211.62 65.17 211.62 34.99 C 211.64 32.78 211.97 30.58 212.57 28.45 Z"/>
<path fill="#ffffff" d=" M 336.55 28.72 C 342.55 26.99 349.64 29.84 352.18 35.68 C 355.40 43.13 353.84 53.10 347.02 58.03 C 340.62 62.47 330.56 59.70 327.79 52.28 C 324.38 43.99 326.78 31.29 336.55 28.72 Z"/>
<path fill="#ffffff" d=" M 370.29 29.18 C 373.51 29.16 376.94 28.63 379.99 29.96 C 383.99 31.88 383.97 38.16 380.59 40.69 C 377.79 43.17 373.79 42.79 370.33 42.90 C 370.27 38.32 370.31 33.75 370.29 29.18 Z"/>
<path fill="#ffffff" d=" M 829.68 29.20 C 833.26 29.17 837.38 28.40 840.48 30.69 C 843.37 33.31 842.92 38.59 839.78 40.85 C 836.96 43.14 833.10 42.81 829.70 42.86 C 829.69 38.31 829.70 33.75 829.68 29.20 Z"/>
<path fill="#ffffff" d=" M 464.85 33.18 C 466.67 37.37 468.49 41.55 470.25 45.75 C 466.66 45.76 463.08 45.75 459.49 45.76 C 461.30 41.58 463.03 37.36 464.85 33.18 Z"/>
<path fill="#ffffff" d=" M 930.67 45.75 C 932.50 41.68 933.97 37.43 936.16 33.51 C 937.96 37.58 939.74 41.65 941.45 45.76 C 937.85 45.76 934.26 45.76 930.67 45.75 Z"/>
<path fill="#727682" d=" M 196.83 48.94 C 198.17 44.87 198.52 40.31 201.30 36.87 C 201.33 38.19 201.36 39.51 201.37 40.83 C 198.60 53.93 193.70 66.51 187.67 78.44 C 192.51 78.42 197.34 78.39 202.18 78.39 C 202.14 78.92 202.07 79.97 202.03 80.50 C 196.90 80.62 191.78 80.61 186.65 80.63 C 184.89 83.60 183.14 86.57 181.30 89.49 C 180.94 90.06 180.58 90.62 180.22 91.19 C 170.98 105.60 158.71 118.74 142.96 126.01 C 139.62 127.60 136.15 129.01 132.45 129.45 C 134.02 126.06 137.91 125.59 140.93 124.14 C 153.73 118.46 164.14 108.55 172.64 97.61 C 183.60 83.04 191.51 66.33 196.83 48.94 Z"/>
<path fill="#ffffff" d=" M 201.37 40.83 C 203.11 48.79 202.42 56.96 202.56 65.04 C 202.62 69.49 202.63 73.95 202.18 78.39 C 197.34 78.39 192.51 78.42 187.67 78.44 C 193.70 66.51 198.60 53.93 201.37 40.83 Z"/>
<path fill="#1a181d" d=" M 433.98 48.51 C 438.11 48.51 442.23 48.51 446.36 48.51 C 446.36 49.55 446.36 50.59 446.37 51.63 C 442.23 51.64 438.08 51.64 433.94 51.63 C 433.95 50.59 433.96 49.55 433.98 48.51 Z"/>
<path fill="#1a181d" d=" M 652.79 48.51 C 656.96 48.51 661.13 48.51 665.31 48.51 C 665.31 49.29 665.31 50.85 665.31 51.63 C 661.14 51.64 656.96 51.64 652.79 51.63 C 652.79 50.85 652.79 49.29 652.79 48.51 Z"/>
<path fill="#bcc1cf" d=" M 48.60 77.69 C 52.36 77.76 56.15 77.73 59.86 77.06 L 59.81 77.18 C 56.60 82.77 60.50 88.94 62.81 94.11 C 63.09 94.15 63.67 94.24 63.95 94.29 L 64.56 94.38 C 67.04 99.63 70.96 103.98 74.91 108.17 C 80.14 113.29 87.06 116.14 93.89 118.43 C 92.80 121.09 91.67 123.74 90.54 126.39 L 89.53 126.09 C 75.97 122.64 64.01 114.09 55.61 102.99 C 51.09 95.38 49.72 86.35 48.60 77.69 Z"/>
<path fill="#727682" d=" M 62.81 94.11 C 60.50 88.94 56.60 82.77 59.81 77.18 C 60.63 83.01 61.79 88.79 63.95 94.29 C 63.67 94.24 63.09 94.15 62.81 94.11 Z"/>
<path fill="#ffffff" d=" M 117.06 77.73 C 117.64 81.78 116.99 85.87 117.28 89.94 C 117.48 95.27 118.32 100.55 119.38 105.77 C 114.58 104.88 109.96 103.29 105.15 102.44 C 108.46 95.11 111.37 87.52 115.95 80.85 C 116.64 79.95 116.87 78.82 117.06 77.73 Z"/>
<path fill="#727682" d=" M 135.16 78.33 C 148.23 78.53 161.31 78.21 174.38 78.50 C 173.84 79.19 173.30 79.89 172.81 80.62 C 161.13 80.74 149.44 80.30 137.77 80.81 C 137.22 83.64 137.26 86.54 137.19 89.41 C 136.41 90.00 135.62 90.59 134.84 91.18 L 134.62 91.35 C 134.80 87.01 134.54 82.65 135.16 78.33 Z"/>
<path fill="#00446b" d=" M 186.65 80.63 C 191.78 80.61 196.90 80.62 202.03 80.50 C 201.90 83.95 202.21 87.44 201.58 90.85 C 192.10 116.64 171.26 138.43 145.25 147.70 C 143.17 144.82 141.11 141.93 139.21 138.94 C 151.19 134.93 162.28 128.21 171.08 119.12 C 179.08 111.26 186.32 102.04 189.84 91.27 C 189.17 91.24 187.84 91.18 187.17 91.15 C 186.85 90.72 186.20 89.86 185.88 89.44 C 184.35 89.46 182.82 89.47 181.30 89.49 C 183.14 86.57 184.89 83.60 186.65 80.63 Z"/>
<path fill="#00446b" d=" M 137.77 80.81 C 149.44 80.30 161.13 80.74 172.81 80.62 C 170.93 83.62 169.02 86.60 167.06 89.54 C 157.10 89.61 147.14 89.81 137.19 89.41 C 137.26 86.54 137.22 83.64 137.77 80.81 Z"/>
<path fill="#1a181d" d=" M 309.59 86.74 C 311.19 86.18 312.98 87.91 312.45 89.54 C 312.02 91.48 308.90 91.89 308.14 89.98 C 307.16 88.82 308.28 87.00 309.59 86.74 Z"/>
<path fill="#1a181d" d=" M 319.52 86.65 C 322.35 86.16 323.29 90.64 320.39 91.18 C 317.43 91.98 316.36 87.01 319.52 86.65 Z"/>
<path fill="#1a181d" d=" M 134.84 91.18 C 135.62 90.59 136.41 90.00 137.19 89.41 C 147.14 89.81 157.10 89.61 167.06 89.54 C 166.79 89.98 166.26 90.87 166.00 91.31 C 155.61 91.18 145.23 91.42 134.84 91.18 Z"/>
<path fill="#1a181d" d=" M 180.22 91.19 C 180.58 90.62 180.94 90.06 181.30 89.49 C 182.82 89.47 184.35 89.46 185.88 89.44 C 186.20 89.86 186.85 90.72 187.17 91.15 C 187.00 91.50 186.65 92.22 186.48 92.57 C 184.53 91.61 182.33 91.47 180.22 91.19 Z"/>
<path fill="#727682" d=" M 187.17 91.15 C 187.84 91.18 189.17 91.24 189.84 91.27 C 186.32 102.04 179.08 111.26 171.08 119.12 C 162.28 128.21 151.19 134.93 139.21 138.94 L 139.01 139.01 C 138.72 138.10 138.43 137.19 138.15 136.28 C 154.68 131.18 168.85 119.80 178.93 105.90 C 181.91 101.75 184.62 97.36 186.48 92.57 C 186.65 92.22 187.00 91.50 187.17 91.15 Z"/>
<path fill="#1a181d" d=" M 264.57 97.69 C 272.00 92.93 281.82 93.45 289.64 97.01 C 289.21 98.42 288.78 99.83 288.35 101.24 C 282.64 95.07 271.51 94.21 265.90 100.93 C 261.09 107.36 261.23 117.39 266.49 123.52 C 271.26 128.38 279.02 128.44 285.02 126.05 C 285.01 121.77 285.03 117.49 285.00 113.22 C 286.48 113.22 287.98 113.23 289.47 113.23 C 289.42 117.92 289.45 122.61 289.44 127.30 C 282.02 129.48 273.65 130.86 266.33 127.60 C 255.24 122.32 254.57 104.40 264.57 97.69 Z"/>
<path fill="#1a181d" d=" M 310.42 94.71 C 317.17 93.42 324.97 94.94 329.76 100.15 C 336.57 108.06 334.26 122.04 324.96 127.04 C 316.88 131.33 305.14 130.33 299.55 122.48 C 294.80 115.44 295.47 104.68 301.99 98.91 C 304.34 96.77 307.32 95.36 310.42 94.71 Z"/>
<path fill="#1a181d" d=" M 459.93 97.86 C 467.37 92.93 477.33 93.40 485.23 96.99 C 484.82 98.41 484.41 99.82 484.02 101.24 C 477.92 94.58 465.39 94.23 460.49 102.44 C 456.95 108.91 457.18 118.04 462.26 123.67 C 467.03 128.42 474.76 128.42 480.68 126.01 C 480.66 121.76 480.68 117.50 480.65 113.25 C 482.10 113.24 483.55 113.23 485.01 113.21 C 485.00 117.91 484.99 122.60 485.01 127.29 C 477.51 129.55 468.96 130.89 461.61 127.42 C 450.93 121.98 450.30 104.65 459.93 97.86 Z"/>
<path fill="#1a181d" d=" M 338.15 94.94 C 346.65 94.94 355.14 94.92 363.63 94.94 C 363.62 95.70 363.61 97.22 363.61 97.98 C 360.21 97.66 356.81 97.47 353.41 97.34 C 353.37 107.88 353.40 118.42 353.40 128.95 C 351.91 128.94 350.43 128.94 348.95 128.95 C 348.94 118.42 348.96 107.89 348.94 97.35 C 345.34 97.45 341.75 97.64 338.17 98.00 C 338.17 97.23 338.16 95.70 338.15 94.94 Z"/>
<path fill="#1a181d" d=" M 367.09 94.94 C 375.58 94.94 384.07 94.93 392.57 94.94 C 392.56 95.70 392.55 97.22 392.54 97.98 C 389.15 97.66 385.75 97.47 382.35 97.34 C 382.31 107.88 382.34 118.42 382.34 128.96 C 380.85 128.94 379.38 128.94 377.90 128.94 C 377.90 118.41 377.91 107.88 377.90 97.36 C 374.30 97.46 370.70 97.64 367.12 98.00 C 367.11 97.24 367.10 95.70 367.09 94.94 Z"/>
<path fill="#1a181d" d=" M 399.63 95.03 C 401.10 95.02 402.58 95.02 404.06 95.02 C 404.06 106.30 404.06 117.57 404.06 128.85 C 402.58 128.83 401.10 128.83 399.63 128.83 C 399.64 117.56 399.63 106.29 399.63 95.03 Z"/>
<path fill="#1a181d" d=" M 415.11 94.65 C 416.36 94.98 417.68 95.37 418.48 96.48 C 426.00 104.60 433.40 112.83 441.02 120.85 C 441.08 112.24 441.02 103.62 441.06 95.01 C 441.76 95.02 443.16 95.03 443.86 95.04 C 443.77 106.49 444.04 117.95 443.71 129.39 C 442.82 128.91 442.02 128.32 441.29 127.64 C 433.47 119.07 425.84 110.32 417.92 101.85 C 417.84 110.84 417.86 119.82 417.90 128.81 C 417.19 128.81 415.76 128.81 415.04 128.82 C 415.12 117.43 415.00 106.04 415.11 94.65 Z"/>
<path fill="#1a181d" d=" M 494.47 94.94 C 500.32 94.93 506.18 94.93 512.03 94.94 C 512.03 95.68 512.03 97.17 512.03 97.91 C 507.67 97.34 503.27 97.34 498.89 97.40 C 498.89 101.51 498.88 105.62 498.90 109.73 C 502.86 109.75 506.84 109.80 510.80 109.51 C 510.82 110.18 510.86 111.53 510.88 112.20 C 506.88 111.94 502.89 111.93 498.89 111.96 C 498.89 116.80 498.88 121.63 498.89 126.47 C 503.36 126.44 507.84 126.28 512.30 125.84 C 512.30 126.82 512.31 127.80 512.32 128.78 C 506.37 128.77 500.42 128.78 494.47 128.78 C 494.47 117.50 494.47 106.22 494.47 94.94 Z"/>
<path fill="#1a181d" d=" M 521.16 94.66 C 522.42 94.96 523.72 95.37 524.52 96.49 C 532.02 104.61 539.46 112.79 547.08 120.81 C 547.15 112.21 547.09 103.62 547.11 95.02 C 547.84 95.02 549.30 95.03 550.02 95.03 C 549.91 106.49 550.26 117.96 549.84 129.42 C 548.89 128.94 548.06 128.33 547.33 127.60 C 539.62 119.01 531.89 110.43 524.07 101.94 C 524.01 110.91 524.05 119.87 524.04 128.84 C 523.30 128.83 521.82 128.81 521.08 128.80 C 521.20 117.42 521.05 106.04 521.16 94.66 Z"/>
<path fill="#ffffff" d=" M 310.54 96.72 C 316.63 94.49 324.30 97.05 327.06 103.10 C 330.63 110.81 328.80 121.54 321.26 126.21 C 314.70 130.20 305.07 126.86 302.60 119.53 C 299.74 111.56 301.65 99.91 310.54 96.72 Z"/>
<path fill="#727682" d=" M 55.61 102.99 C 64.01 114.09 75.97 122.64 89.53 126.09 C 89.67 126.65 89.97 127.77 90.11 128.33 C 75.99 124.60 63.19 115.56 55.61 102.99 Z"/>
<path fill="#ffffff" d=" M 98.34 105.07 C 98.39 103.34 100.45 103.52 101.62 103.01 C 100.98 104.70 100.31 106.39 99.57 108.03 C 99.14 107.07 98.11 106.22 98.34 105.07 Z"/>
<path fill="#bcc1cf" d=" M 95.66 128.37 C 96.64 125.17 98.10 122.16 99.66 119.21 C 107.05 121.21 114.74 120.40 122.30 120.47 C 123.97 123.29 125.40 126.25 126.44 129.37 C 119.63 129.42 112.80 130.01 106.00 129.37 C 102.55 129.06 99.13 128.34 95.66 128.37 Z"/>
<path fill="#727682" d=" M 95.66 128.37 C 99.13 128.34 102.55 129.06 106.00 129.37 C 112.80 130.01 119.63 129.42 126.44 129.37 C 126.71 129.75 127.26 130.50 127.53 130.88 C 116.60 132.86 105.05 132.26 94.37 129.24 L 95.66 128.37 Z"/>
<path fill="#00446b" d=" M 84.28 148.46 C 86.27 145.38 88.17 142.26 89.96 139.07 C 93.26 139.21 96.57 139.34 99.87 139.28 C 99.77 139.54 99.56 140.05 99.46 140.31 C 110.48 140.39 121.52 140.69 132.53 140.14 C 134.82 143.36 137.14 146.55 139.51 149.71 C 121.47 154.77 102.17 153.53 84.28 148.46 Z"/>
<path fill="#1a181d" d=" M 73.54 167.67 C 75.05 166.97 76.61 166.37 78.17 165.76 C 76.80 169.21 75.28 172.59 74.12 176.11 C 73.85 175.88 73.30 175.41 73.03 175.18 C 74.32 172.57 75.41 169.87 76.55 167.19 C 75.80 167.31 74.29 167.55 73.54 167.67 Z"/>
<path fill="#1a181d" d=" M 142.13 167.84 C 144.36 166.97 146.74 166.55 149.08 166.07 C 148.74 167.93 148.39 169.79 148.03 171.65 L 150.24 170.92 C 147.48 172.06 147.37 174.91 147.29 177.51 C 146.86 177.58 146.01 177.74 145.58 177.82 C 146.02 176.20 146.45 174.59 146.86 172.97 C 146.10 172.87 144.57 172.66 143.80 172.56 C 144.81 172.39 145.82 172.24 146.83 172.11 C 147.18 170.48 147.53 168.86 147.86 167.24 C 146.04 167.19 143.68 169.54 142.13 167.84 Z"/>
<path fill="#1a181d" d=" M 95.20 169.86 C 97.13 167.69 100.21 169.42 102.66 169.36 C 101.77 170.94 100.90 172.52 100.03 174.11 C 100.57 174.14 101.65 174.20 102.20 174.23 C 98.19 173.96 98.99 179.09 95.97 180.06 C 96.59 178.36 97.42 176.74 98.27 175.15 C 97.60 175.00 96.25 174.72 95.57 174.58 C 96.65 174.45 97.73 174.34 98.81 174.24 C 99.55 172.80 100.29 171.37 101.02 169.93 C 99.08 169.92 97.14 169.89 95.20 169.86 Z"/>
<path fill="#1a181d" d=" M 119.57 170.83 C 120.73 168.44 124.05 169.65 126.17 169.06 C 125.52 170.59 124.86 172.11 124.20 173.64 C 125.38 174.53 127.28 175.21 126.98 177.06 C 126.76 180.15 123.07 180.47 120.68 180.08 C 120.76 179.68 120.92 178.89 120.99 178.49 C 121.94 179.05 122.94 179.33 124.01 179.32 C 126.05 179.00 125.78 176.65 125.34 175.24 C 124.62 175.14 123.18 174.96 122.46 174.86 C 123.22 173.25 123.97 171.63 124.71 170.02 C 123.00 170.30 121.28 170.57 119.57 170.83 Z"/>
</svg>